<svg width="13" height="12" viewBox="0 0 13 12" fill="none" xmlns="http://www.w3.org/2000/svg">
<path id="Vector" d="M7.40185 11.6859L7.46758 11.63L12.6753 6.67421C12.8607 6.49777 12.9752 6.25778 12.9964 6.00066C13.0177 5.74354 12.9442 5.48756 12.7903 5.28222L12.7229 5.19881L12.6761 5.15127L7.46841 0.190475C7.34162 0.0685162 7.1737 0.00037314 6.99903 1.5279e-06C6.82436 -0.000370084 6.65616 0.0670578 6.52888 0.188476C6.4016 0.309895 6.32486 0.476115 6.31439 0.653096C6.30392 0.830076 6.3605 1.00442 6.47256 1.14043L6.53172 1.20382L10.7427 5.21466H0.679047C0.505513 5.21626 0.33904 5.28463 0.213236 5.40597C0.0874319 5.52731 0.0116673 5.69258 0.00123882 5.86841C-0.00919056 6.04425 0.0464926 6.21755 0.157046 6.35333C0.2676 6.48911 0.424789 6.57726 0.596881 6.59998L0.679047 6.60499H10.7476L6.53172 10.615C6.40937 10.7308 6.33304 10.8881 6.31714 11.0571C6.30125 11.2261 6.34689 11.3952 6.44544 11.5324L6.50049 11.6C6.61521 11.7234 6.77039 11.8 6.93685 11.8153C7.10331 11.8307 7.26956 11.7838 7.40432 11.6834L7.40185 11.6859Z" fill="#0F172A"/>
</svg>
