<svg width="17" height="15" viewBox="0 0 17 15" fill="none" xmlns="http://www.w3.org/2000/svg">
<path id="Subtract" d="M15.2324 0C15.8405 0.000114447 16.333 0.493499 16.333 1.10156V11.1943C16.333 11.8024 15.8405 12.2958 15.2324 12.2959H4.98926C4.73031 12.2959 4.47958 12.3872 4.28125 12.5537L1.80957 14.6299C1.09325 15.2316 0.000228265 14.7225 0 13.7871V1.10156C0 0.493429 0.493429 0 1.10156 0H15.2324ZM5.50586 6.79004C5.2018 6.79004 4.95509 7.03676 4.95508 7.34082C4.95508 7.64489 5.20179 7.8916 5.50586 7.8916H10.6445C10.9484 7.89142 11.1943 7.64477 11.1943 7.34082C11.1943 7.03688 10.9484 6.79022 10.6445 6.79004H5.50586ZM5.50586 4.4043C5.20179 4.4043 4.95508 4.65101 4.95508 4.95508C4.95509 5.25914 5.2018 5.50586 5.50586 5.50586H10.6445C10.9484 5.50567 11.1943 5.25902 11.1943 4.95508C11.1943 4.65113 10.9484 4.40448 10.6445 4.4043H5.50586Z" fill="#2563EB"/>
</svg>
